<?xml version="1.0" encoding="UTF-8"?>
<svg width="24" height="24" viewBox="0 0 24 24" fill="none" xmlns="http://www.w3.org/2000/svg">
<path d="M8.5 17.5C8.5 18.3284 7.82843 19 7 19C6.17157 19 5.5 18.3284 5.5 17.5C5.5 16.6716 6.17157 16 7 16C7.82843 16 8.5 16.6716 8.5 17.5Z" fill="#FF9900"/>
<path d="M18.5 17.5C18.5 18.3284 17.8284 19 17 19C16.1716 19 15.5 18.3284 15.5 17.5C15.5 16.6716 16.1716 16 17 16C17.8284 16 18.5 16.6716 18.5 17.5Z" fill="#FF9900"/>
<path d="M2 2H3.5L4.5 4H20L18 12H6L4.5 4H2V2Z" stroke="#FF9900" stroke-width="2" stroke-linecap="round" stroke-linejoin="round" fill="none"/>
<path d="M6 14H18" stroke="#FF9900" stroke-width="2" stroke-linecap="round"/>
<path d="M4 20C4.5 20.5 19.5 20.5 20 20C20.5 19.5 20.5 19.5 20 19" stroke="#FF9900" stroke-width="1.5" stroke-linecap="round"/>
</svg>
